//This is our logo
<svg xmlns="http://www.w3.org/2000/svg" xmlns:xlink="http://www.w3.org/1999/xlink" width="361" zoomAndPan="magnify" viewBox="0 0 270.75 195.750001" height="261" preserveAspectRatio="xMidYMid meet" version="1.0"><defs><g/><clipPath id="8292e78c99"><path d="M 0.046875 0 L 270.453125 0 L 270.453125 195.5 L 0.046875 195.5 Z M 0.046875 0 " clip-rule="nonzero"/></clipPath></defs><g clip-path="url(#8292e78c99)"><path fill="#ffffff" d="M 0.046875 0 L 270.703125 0 L 270.703125 202.429688 L 0.046875 202.429688 Z M 0.046875 0 " fill-opacity="1" fill-rule="nonzero"/><path fill="#ffffff" d="M 0.046875 0 L 270.703125 0 L 270.703125 195.679688 L 0.046875 195.679688 Z M 0.046875 0 " fill-opacity="1" fill-rule="nonzero"/></g><g fill="#000000" fill-opacity="0.4"><g transform="translate(40.855236, 95.813286)"><g><path d="M 22.3125 -25.972656 C 20.753906 -27.050781 17.152344 -28.011719 16.433594 -29.871094 C 15.355469 -32.808594 19.375 -34.90625 21.414062 -35.867188 C 26.628906 -38.328125 22.070312 -46.0625 16.855469 -43.605469 C 8.816406 -39.824219 3.238281 -29.148438 11.277344 -22.191406 C 14.09375 -19.734375 19.671875 -18.773438 20.273438 -14.335938 C 20.511719 -12.476562 19.613281 -10.734375 17.933594 -10.015625 C 16.792969 -9.535156 12.59375 -8.875 11.636719 -10.195312 C 8.15625 -14.753906 0.359375 -10.257812 3.839844 -5.636719 C 10.917969 3.71875 27.832031 -0.238281 29.148438 -12.234375 C 29.75 -17.753906 26.871094 -22.972656 22.3125 -25.972656 Z M 22.3125 -25.972656 "/></g></g></g><g fill="#000000" fill-opacity="0.4"><g transform="translate(73.123803, 95.813286)"><g><path d="M 27.289062 -41.207031 C 20.632812 -42.046875 13.976562 -42.164062 7.257812 -41.445312 C 1.558594 -40.90625 1.5 -31.910156 7.257812 -32.507812 C 9.058594 -32.6875 10.796875 -32.75 12.535156 -32.867188 C 11.996094 -24.050781 11.515625 -15.292969 10.976562 -6.539062 C 10.617188 -0.71875 19.613281 -0.78125 19.972656 -6.539062 C 20.511719 -15.234375 20.992188 -23.992188 21.53125 -32.75 C 23.453125 -32.628906 25.371094 -32.449219 27.289062 -32.207031 C 33.046875 -31.429688 32.988281 -40.425781 27.289062 -41.207031 Z M 27.289062 -41.207031 "/></g></g></g><g fill="#000000" fill-opacity="0.4"><g transform="translate(107.731539, 95.813286)"><g><path d="M 35.027344 -34.007812 C 34.308594 -39.707031 25.3125 -39.765625 26.03125 -34.007812 C 26.871094 -27.46875 25.910156 -16.433594 18.894531 -13.136719 C 11.335938 -9.535156 11.875 -31.070312 12.117188 -34.609375 C 12.535156 -40.367188 3.539062 -40.367188 3.117188 -34.609375 C 2.398438 -24.472656 3.480469 -1.199219 19.253906 -3.839844 C 32.027344 -5.996094 36.40625 -23.210938 35.027344 -34.007812 Z M 35.027344 -34.007812 "/></g></g></g><g fill="#000000" fill-opacity="0.4"><g transform="translate(145.997974, 95.813286)"><g><path d="M 25.910156 -37.066406 C 22.191406 -40.425781 17.753906 -41.984375 12.957031 -42.886719 C 12.476562 -43.003906 11.9375 -43.066406 11.457031 -43.183594 C 8.578125 -43.664062 4.796875 -43.722656 4.558594 -40.007812 C 3.777344 -29.089844 3.300781 -18.171875 3 -7.257812 C 2.9375 -5.339844 4.558594 -3.597656 6.417969 -3.359375 C 7.796875 -3.117188 9.238281 -3.539062 10.617188 -3.957031 C 15.414062 -5.578125 21.234375 -7.4375 25.132812 -10.734375 C 28.667969 -13.796875 31.308594 -17.875 31.847656 -22.550781 C 32.507812 -28.128906 29.988281 -33.40625 25.910156 -37.066406 Z M 22.550781 -22.011719 C 20.871094 -17.273438 16.554688 -15.535156 12.117188 -14.09375 C 12.355469 -20.632812 12.714844 -27.171875 13.074219 -33.648438 C 18.652344 -32.449219 24.890625 -28.550781 22.550781 -22.011719 Z M 22.550781 -22.011719 "/></g></g></g><g fill="#000000" fill-opacity="0.4"><g transform="translate(181.02556, 95.813286)"><g><path d="M 24.171875 -40.964844 C 23.75 -37.488281 23.332031 -33.949219 22.851562 -30.46875 C 21.414062 -27.589844 16.972656 -22.910156 13.613281 -25.132812 C 10.257812 -27.410156 12.234375 -34.789062 13.433594 -37.546875 C 15.773438 -42.886719 7.617188 -46.664062 5.277344 -41.386719 C 2.039062 -33.828125 1.140625 -21.414062 9.835938 -16.972656 C 13.074219 -15.355469 16.554688 -15.355469 19.851562 -16.496094 C 18.773438 -13.914062 17.09375 -11.574219 14.394531 -10.375 C 9.175781 -8.039062 12.296875 0.417969 17.632812 -1.980469 C 31.488281 -8.21875 31.367188 -26.511719 33.046875 -39.40625 C 33.769531 -45.164062 24.953125 -46.722656 24.171875 -40.964844 Z M 24.171875 -40.964844 "/></g></g></g><g fill="#000000" fill-opacity="1"><g transform="translate(38.204523, 93.162572)"><g><path d="M 22.3125 -25.972656 C 20.753906 -27.050781 17.152344 -28.011719 16.433594 -29.871094 C 15.355469 -32.808594 19.375 -34.90625 21.414062 -35.867188 C 26.628906 -38.328125 22.070312 -46.0625 16.855469 -43.605469 C 8.816406 -39.824219 3.238281 -29.148438 11.277344 -22.191406 C 14.09375 -19.734375 19.671875 -18.773438 20.273438 -14.335938 C 20.511719 -12.476562 19.613281 -10.734375 17.933594 -10.015625 C 16.792969 -9.535156 12.59375 -8.875 11.636719 -10.195312 C 8.15625 -14.753906 0.359375 -10.257812 3.839844 -5.636719 C 10.917969 3.71875 27.832031 -0.238281 29.148438 -12.234375 C 29.75 -17.753906 26.871094 -22.972656 22.3125 -25.972656 Z M 22.3125 -25.972656 "/></g></g></g><g fill="#000000" fill-opacity="1"><g transform="translate(70.473089, 93.162572)"><g><path d="M 27.289062 -41.207031 C 20.632812 -42.046875 13.976562 -42.164062 7.257812 -41.445312 C 1.558594 -40.90625 1.5 -31.910156 7.257812 -32.507812 C 9.058594 -32.6875 10.796875 -32.75 12.535156 -32.867188 C 11.996094 -24.050781 11.515625 -15.292969 10.976562 -6.539062 C 10.617188 -0.71875 19.613281 -0.78125 19.972656 -6.539062 C 20.511719 -15.234375 20.992188 -23.992188 21.53125 -32.75 C 23.453125 -32.628906 25.371094 -32.449219 27.289062 -32.207031 C 33.046875 -31.429688 32.988281 -40.425781 27.289062 -41.207031 Z M 27.289062 -41.207031 "/></g></g></g><g fill="#000000" fill-opacity="1"><g transform="translate(105.080826, 93.162572)"><g><path d="M 35.027344 -34.007812 C 34.308594 -39.707031 25.3125 -39.765625 26.03125 -34.007812 C 26.871094 -27.46875 25.910156 -16.433594 18.894531 -13.136719 C 11.335938 -9.535156 11.875 -31.070312 12.117188 -34.609375 C 12.535156 -40.367188 3.539062 -40.367188 3.117188 -34.609375 C 2.398438 -24.472656 3.480469 -1.199219 19.253906 -3.839844 C 32.027344 -5.996094 36.40625 -23.210938 35.027344 -34.007812 Z M 35.027344 -34.007812 "/></g></g></g><g fill="#000000" fill-opacity="1"><g transform="translate(143.347261, 93.162572)"><g><path d="M 25.910156 -37.066406 C 22.191406 -40.425781 17.753906 -41.984375 12.957031 -42.886719 C 12.476562 -43.003906 11.9375 -43.066406 11.457031 -43.183594 C 8.578125 -43.664062 4.796875 -43.722656 4.558594 -40.007812 C 3.777344 -29.089844 3.300781 -18.171875 3 -7.257812 C 2.9375 -5.339844 4.558594 -3.597656 6.417969 -3.359375 C 7.796875 -3.117188 9.238281 -3.539062 10.617188 -3.957031 C 15.414062 -5.578125 21.234375 -7.4375 25.132812 -10.734375 C 28.667969 -13.796875 31.308594 -17.875 31.847656 -22.550781 C 32.507812 -28.128906 29.988281 -33.40625 25.910156 -37.066406 Z M 22.550781 -22.011719 C 20.871094 -17.273438 16.554688 -15.535156 12.117188 -14.09375 C 12.355469 -20.632812 12.714844 -27.171875 13.074219 -33.648438 C 18.652344 -32.449219 24.890625 -28.550781 22.550781 -22.011719 Z M 22.550781 -22.011719 "/></g></g></g><g fill="#000000" fill-opacity="1"><g transform="translate(178.374847, 93.162572)"><g><path d="M 24.171875 -40.964844 C 23.75 -37.488281 23.332031 -33.949219 22.851562 -30.46875 C 21.414062 -27.589844 16.972656 -22.910156 13.613281 -25.132812 C 10.257812 -27.410156 12.234375 -34.789062 13.433594 -37.546875 C 15.773438 -42.886719 7.617188 -46.664062 5.277344 -41.386719 C 2.039062 -33.828125 1.140625 -21.414062 9.835938 -16.972656 C 13.074219 -15.355469 16.554688 -15.355469 19.851562 -16.496094 C 18.773438 -13.914062 17.09375 -11.574219 14.394531 -10.375 C 9.175781 -8.039062 12.296875 0.417969 17.632812 -1.980469 C 31.488281 -8.21875 31.367188 -26.511719 33.046875 -39.40625 C 33.769531 -45.164062 24.953125 -46.722656 24.171875 -40.964844 Z M 24.171875 -40.964844 "/></g></g></g><g fill="#000000" fill-opacity="0.4"><g transform="translate(217.124963, 95.813286)"><g/></g></g><g fill="#000000" fill-opacity="1"><g transform="translate(214.47425, 93.162572)"><g/></g></g><path fill="#000000" d="M 40.84375 147.121094 L 225.335938 147.121094 L 225.335938 153.117188 L 40.84375 153.117188 Z M 40.84375 147.121094 " fill-opacity="0.4" fill-rule="nonzero"/><path fill="#000000" d="M 38.191406 144.46875 L 222.6875 144.46875 L 222.6875 150.46875 L 38.191406 150.46875 Z M 38.191406 144.46875 " fill-opacity="1" fill-rule="nonzero"/><g fill="#000000" fill-opacity="0.4"><g transform="translate(40.843521, 144.120891)"><g><path d="M 36.828125 -32.808594 C 34.667969 -42.886719 20.03125 -46.605469 11.636719 -43.484375 C 11.457031 -43.425781 11.335938 -43.363281 11.214844 -43.304688 C 9.175781 -43.484375 6.597656 -42.226562 6.296875 -40.066406 C 5.15625 -31.367188 3.238281 -22.371094 3 -13.613281 C 2.757812 -5.578125 9.476562 -1.558594 16.914062 -2.398438 C 23.929688 -3.238281 31.308594 -8.816406 31.1875 -16.433594 C 31.128906 -18.472656 30.589844 -20.210938 29.691406 -21.59375 C 34.429688 -23.871094 37.964844 -27.46875 36.828125 -32.808594 Z M 21.53125 -35.207031 C 22.492188 -34.90625 28.070312 -32.988281 27.890625 -31.308594 C 27.832031 -30.410156 23.929688 -29.03125 22.910156 -28.667969 C 20.453125 -27.769531 17.992188 -27.410156 15.414062 -27.351562 C 15.113281 -27.351562 14.753906 -27.351562 14.453125 -27.351562 C 14.15625 -27.351562 13.914062 -27.351562 13.613281 -27.289062 C 13.976562 -29.871094 14.335938 -32.449219 14.636719 -35.027344 C 16.972656 -35.808594 19.132812 -35.867188 21.53125 -35.207031 Z M 20.933594 -13.796875 C 19.492188 -12.175781 14.273438 -9.714844 12.296875 -11.753906 C 11.515625 -12.535156 12.054688 -14.574219 12.175781 -15.65625 C 12.234375 -16.734375 12.414062 -17.753906 12.535156 -18.773438 C 13.074219 -18.535156 13.734375 -18.414062 14.453125 -18.351562 C 14.753906 -18.351562 15.054688 -18.351562 15.355469 -18.351562 C 18.59375 -18.351562 24.589844 -17.8125 20.933594 -13.796875 Z M 20.933594 -13.796875 "/></g></g></g><g fill="#000000" fill-opacity="0.4"><g transform="translate(80.909327, 144.120891)"><g><path d="M 35.027344 -34.007812 C 34.308594 -39.707031 25.3125 -39.765625 26.03125 -34.007812 C 26.871094 -27.46875 25.910156 -16.433594 18.894531 -13.136719 C 11.335938 -9.535156 11.875 -31.070312 12.117188 -34.609375 C 12.535156 -40.367188 3.539062 -40.367188 3.117188 -34.609375 C 2.398438 -24.472656 3.480469 -1.199219 19.253906 -3.839844 C 32.027344 -5.996094 36.40625 -23.210938 35.027344 -34.007812 Z M 35.027344 -34.007812 "/></g></g></g><g fill="#000000" fill-opacity="0.4"><g transform="translate(119.175763, 144.120891)"><g><path d="M 25.910156 -37.066406 C 22.191406 -40.425781 17.753906 -41.984375 12.957031 -42.886719 C 12.476562 -43.003906 11.9375 -43.066406 11.457031 -43.183594 C 8.578125 -43.664062 4.796875 -43.722656 4.558594 -40.007812 C 3.777344 -29.089844 3.300781 -18.171875 3 -7.257812 C 2.9375 -5.339844 4.558594 -3.597656 6.417969 -3.359375 C 7.796875 -3.117188 9.238281 -3.539062 10.617188 -3.957031 C 15.414062 -5.578125 21.234375 -7.4375 25.132812 -10.734375 C 28.667969 -13.796875 31.308594 -17.875 31.847656 -22.550781 C 32.507812 -28.128906 29.988281 -33.40625 25.910156 -37.066406 Z M 22.550781 -22.011719 C 20.871094 -17.273438 16.554688 -15.535156 12.117188 -14.09375 C 12.355469 -20.632812 12.714844 -27.171875 13.074219 -33.648438 C 18.652344 -32.449219 24.890625 -28.550781 22.550781 -22.011719 Z M 22.550781 -22.011719 "/></g></g></g><g fill="#000000" fill-opacity="0.4"><g transform="translate(154.203348, 144.120891)"><g><path d="M 25.910156 -37.066406 C 22.191406 -40.425781 17.753906 -41.984375 12.957031 -42.886719 C 12.476562 -43.003906 11.9375 -43.066406 11.457031 -43.183594 C 8.578125 -43.664062 4.796875 -43.722656 4.558594 -40.007812 C 3.777344 -29.089844 3.300781 -18.171875 3 -7.257812 C 2.9375 -5.339844 4.558594 -3.597656 6.417969 -3.359375 C 7.796875 -3.117188 9.238281 -3.539062 10.617188 -3.957031 C 15.414062 -5.578125 21.234375 -7.4375 25.132812 -10.734375 C 28.667969 -13.796875 31.308594 -17.875 31.847656 -22.550781 C 32.507812 -28.128906 29.988281 -33.40625 25.910156 -37.066406 Z M 22.550781 -22.011719 C 20.871094 -17.273438 16.554688 -15.535156 12.117188 -14.09375 C 12.355469 -20.632812 12.714844 -27.171875 13.074219 -33.648438 C 18.652344 -32.449219 24.890625 -28.550781 22.550781 -22.011719 Z M 22.550781 -22.011719 "/></g></g></g><g fill="#000000" fill-opacity="0.4"><g transform="translate(189.230934, 144.120891)"><g><path d="M 24.171875 -40.964844 C 23.75 -37.488281 23.332031 -33.949219 22.851562 -30.46875 C 21.414062 -27.589844 16.972656 -22.910156 13.613281 -25.132812 C 10.257812 -27.410156 12.234375 -34.789062 13.433594 -37.546875 C 15.773438 -42.886719 7.617188 -46.664062 5.277344 -41.386719 C 2.039062 -33.828125 1.140625 -21.414062 9.835938 -16.972656 C 13.074219 -15.355469 16.554688 -15.355469 19.851562 -16.496094 C 18.773438 -13.914062 17.09375 -11.574219 14.394531 -10.375 C 9.175781 -8.039062 12.296875 0.417969 17.632812 -1.980469 C 31.488281 -8.21875 31.367188 -26.511719 33.046875 -39.40625 C 33.769531 -45.164062 24.953125 -46.722656 24.171875 -40.964844 Z M 24.171875 -40.964844 "/></g></g></g><g fill="#000000" fill-opacity="1"><g transform="translate(38.192808, 141.470176)"><g><path d="M 36.828125 -32.808594 C 34.667969 -42.886719 20.03125 -46.605469 11.636719 -43.484375 C 11.457031 -43.425781 11.335938 -43.363281 11.214844 -43.304688 C 9.175781 -43.484375 6.597656 -42.226562 6.296875 -40.066406 C 5.15625 -31.367188 3.238281 -22.371094 3 -13.613281 C 2.757812 -5.578125 9.476562 -1.558594 16.914062 -2.398438 C 23.929688 -3.238281 31.308594 -8.816406 31.1875 -16.433594 C 31.128906 -18.472656 30.589844 -20.210938 29.691406 -21.59375 C 34.429688 -23.871094 37.964844 -27.46875 36.828125 -32.808594 Z M 21.53125 -35.207031 C 22.492188 -34.90625 28.070312 -32.988281 27.890625 -31.308594 C 27.832031 -30.410156 23.929688 -29.03125 22.910156 -28.667969 C 20.453125 -27.769531 17.992188 -27.410156 15.414062 -27.351562 C 15.113281 -27.351562 14.753906 -27.351562 14.453125 -27.351562 C 14.15625 -27.351562 13.914062 -27.351562 13.613281 -27.289062 C 13.976562 -29.871094 14.335938 -32.449219 14.636719 -35.027344 C 16.972656 -35.808594 19.132812 -35.867188 21.53125 -35.207031 Z M 20.933594 -13.796875 C 19.492188 -12.175781 14.273438 -9.714844 12.296875 -11.753906 C 11.515625 -12.535156 12.054688 -14.574219 12.175781 -15.65625 C 12.234375 -16.734375 12.414062 -17.753906 12.535156 -18.773438 C 13.074219 -18.535156 13.734375 -18.414062 14.453125 -18.351562 C 14.753906 -18.351562 15.054688 -18.351562 15.355469 -18.351562 C 18.59375 -18.351562 24.589844 -17.8125 20.933594 -13.796875 Z M 20.933594 -13.796875 "/></g></g></g><g fill="#000000" fill-opacity="1"><g transform="translate(78.258614, 141.470176)"><g><path d="M 35.027344 -34.007812 C 34.308594 -39.707031 25.3125 -39.765625 26.03125 -34.007812 C 26.871094 -27.46875 25.910156 -16.433594 18.894531 -13.136719 C 11.335938 -9.535156 11.875 -31.070312 12.117188 -34.609375 C 12.535156 -40.367188 3.539062 -40.367188 3.117188 -34.609375 C 2.398438 -24.472656 3.480469 -1.199219 19.253906 -3.839844 C 32.027344 -5.996094 36.40625 -23.210938 35.027344 -34.007812 Z M 35.027344 -34.007812 "/></g></g></g><g fill="#000000" fill-opacity="1"><g transform="translate(116.52505, 141.470176)"><g><path d="M 25.910156 -37.066406 C 22.191406 -40.425781 17.753906 -41.984375 12.957031 -42.886719 C 12.476562 -43.003906 11.9375 -43.066406 11.457031 -43.183594 C 8.578125 -43.664062 4.796875 -43.722656 4.558594 -40.007812 C 3.777344 -29.089844 3.300781 -18.171875 3 -7.257812 C 2.9375 -5.339844 4.558594 -3.597656 6.417969 -3.359375 C 7.796875 -3.117188 9.238281 -3.539062 10.617188 -3.957031 C 15.414062 -5.578125 21.234375 -7.4375 25.132812 -10.734375 C 28.667969 -13.796875 31.308594 -17.875 31.847656 -22.550781 C 32.507812 -28.128906 29.988281 -33.40625 25.910156 -37.066406 Z M 22.550781 -22.011719 C 20.871094 -17.273438 16.554688 -15.535156 12.117188 -14.09375 C 12.355469 -20.632812 12.714844 -27.171875 13.074219 -33.648438 C 18.652344 -32.449219 24.890625 -28.550781 22.550781 -22.011719 Z M 22.550781 -22.011719 "/></g></g></g><g fill="#000000" fill-opacity="1"><g transform="translate(151.552635, 141.470176)"><g><path d="M 25.910156 -37.066406 C 22.191406 -40.425781 17.753906 -41.984375 12.957031 -42.886719 C 12.476562 -43.003906 11.9375 -43.066406 11.457031 -43.183594 C 8.578125 -43.664062 4.796875 -43.722656 4.558594 -40.007812 C 3.777344 -29.089844 3.300781 -18.171875 3 -7.257812 C 2.9375 -5.339844 4.558594 -3.597656 6.417969 -3.359375 C 7.796875 -3.117188 9.238281 -3.539062 10.617188 -3.957031 C 15.414062 -5.578125 21.234375 -7.4375 25.132812 -10.734375 C 28.667969 -13.796875 31.308594 -17.875 31.847656 -22.550781 C 32.507812 -28.128906 29.988281 -33.40625 25.910156 -37.066406 Z M 22.550781 -22.011719 C 20.871094 -17.273438 16.554688 -15.535156 12.117188 -14.09375 C 12.355469 -20.632812 12.714844 -27.171875 13.074219 -33.648438 C 18.652344 -32.449219 24.890625 -28.550781 22.550781 -22.011719 Z M 22.550781 -22.011719 "/></g></g></g><g fill="#000000" fill-opacity="1"><g transform="translate(186.580221, 141.470176)"><g><path d="M 24.171875 -40.964844 C 23.75 -37.488281 23.332031 -33.949219 22.851562 -30.46875 C 21.414062 -27.589844 16.972656 -22.910156 13.613281 -25.132812 C 10.257812 -27.410156 12.234375 -34.789062 13.433594 -37.546875 C 15.773438 -42.886719 7.617188 -46.664062 5.277344 -41.386719 C 2.039062 -33.828125 1.140625 -21.414062 9.835938 -16.972656 C 13.074219 -15.355469 16.554688 -15.355469 19.851562 -16.496094 C 18.773438 -13.914062 17.09375 -11.574219 14.394531 -10.375 C 9.175781 -8.039062 12.296875 0.417969 17.632812 -1.980469 C 31.488281 -8.21875 31.367188 -26.511719 33.046875 -39.40625 C 33.769531 -45.164062 24.953125 -46.722656 24.171875 -40.964844 Z M 24.171875 -40.964844 "/></g></g></g></svg>